<svg xmlns="http://www.w3.org/2000/svg" width="1142" height="133" viewBox="0 0 1142 133" fill="none">
    <g clip-path="url(#clip0_818_10964)">
        <rect width="1142" height="133" rx="24" fill="white" />
        <g filter="url(#filter0_f_818_10964)">
            <rect x="157.891" y="20" width="28.8228" height="28.8228" rx="5.76456"
                transform="rotate(33.4564 157.891 20)" fill="#3F51B5" />
            <g clip-path="url(#clip1_818_10964)">
                <path
                    d="M158.92 32.9646C159.662 31.8423 160.033 31.2811 160.534 30.9968C160.976 30.7467 161.485 30.6427 161.989 30.6997C162.562 30.7646 163.123 31.1354 164.245 31.877L169.589 35.4081C170.337 35.9025 170.711 36.1497 170.901 36.4842C171.068 36.7783 171.137 37.1178 171.099 37.4538C171.056 37.8358 170.809 38.2099 170.314 38.9581L164.311 48.0425C163.817 48.7907 163.57 49.1648 163.235 49.3543C162.941 49.5211 162.602 49.5904 162.266 49.5524C161.884 49.5092 161.509 49.262 160.761 48.7676L155.418 45.2364C154.295 44.4948 153.734 44.124 153.45 43.6223C153.2 43.1811 153.096 42.6719 153.153 42.1679C153.218 41.5949 153.588 41.0338 154.33 39.9115L158.92 32.9646Z"
                    fill="#647AF3" />
                <path
                    d="M164.223 48.1761L165.547 46.1722L156.864 40.4341C155.757 39.7028 154.267 40.0071 153.535 41.1138M155.418 45.2364L160.761 48.7676C161.509 49.262 161.884 49.5092 162.266 49.5524C162.602 49.5904 162.941 49.5211 163.235 49.3543C163.57 49.1648 163.817 48.7907 164.311 48.0425L170.314 38.9581C170.809 38.2099 171.056 37.8358 171.099 37.4538C171.137 37.1178 171.068 36.7783 170.901 36.4842C170.711 36.1497 170.337 35.9025 169.589 35.4081L164.245 31.877C163.123 31.1354 162.562 30.7646 161.989 30.6997C161.485 30.6427 160.976 30.7467 160.534 30.9968C160.033 31.2811 159.662 31.8423 158.92 32.9646L154.33 39.9115C153.588 41.0338 153.218 41.5949 153.153 42.1679C153.096 42.6719 153.2 43.1811 153.45 43.6223C153.734 44.124 154.295 44.4948 155.418 45.2364Z"
                    stroke="white" stroke-width="1.20095" stroke-linecap="round" stroke-linejoin="round" />
                <path fillRule="evenodd" clipRule="evenodd"
                    d="M165.726 35.7348C165.97 35.3659 165.869 34.8692 165.5 34.6255C165.131 34.3817 164.634 34.4831 164.391 34.8521L163.508 36.188L162.172 35.3053C161.803 35.0615 161.306 35.163 161.063 35.5319C160.819 35.9008 160.92 36.3975 161.289 36.6412L162.625 37.5239L160.859 40.1958C160.616 40.5647 160.717 41.0614 161.086 41.3052C161.455 41.549 161.952 41.4475 162.195 41.0786L163.961 38.4067L165.297 39.2896C165.666 39.5333 166.163 39.4319 166.406 39.063C166.65 38.6941 166.549 38.1974 166.18 37.9536L164.844 37.0708L165.726 35.7348Z"
                    fill="white" />
            </g>
        </g>
        <g filter="url(#filter1_f_818_10964)">
            <rect x="271.758" y="84.1201" width="28.8228" height="28.8228" rx="5.76456"
                transform="rotate(97.2021 271.758 84.1201)" fill="#0EA085" />
            <path
                d="M251.224 94.4439L251.68 90.8392C251.704 90.6421 251.565 90.4621 251.368 90.4372C251.171 90.4123 250.991 90.5519 250.966 90.749L250.51 94.3537C250.485 94.5508 250.625 94.7308 250.822 94.7557C251.019 94.7806 251.199 94.641 251.224 94.4439Z"
                fill="white" />
            <path
                d="M250.542 99.8329L250.998 96.2282C251.023 96.0311 250.883 95.8511 250.686 95.8262C250.489 95.8013 250.309 95.9409 250.284 96.138L249.829 99.7427C249.804 99.9398 249.943 100.12 250.14 100.145C250.337 100.17 250.517 100.03 250.542 99.8329Z"
                fill="white" />
            <path
                d="M259.465 100.961L260.601 91.9666C260.626 91.7695 260.487 91.5895 260.29 91.5646C260.092 91.5397 259.912 91.6793 259.888 91.8764L258.751 100.87C258.726 101.067 258.866 101.247 259.063 101.272C259.26 101.297 259.44 101.158 259.465 100.961Z"
                fill="white" />
            <path
                d="M257.681 100.735L258.137 97.1302C258.161 96.9331 258.022 96.7531 257.825 96.7282C257.628 96.7033 257.448 96.8429 257.423 97.04L256.967 100.645C256.942 100.842 257.082 101.022 257.279 101.047C257.476 101.072 257.656 100.932 257.681 100.735Z"
                fill="white" />
            <path
                d="M255.896 100.51L256.351 96.9049C256.376 96.7078 256.237 96.5278 256.04 96.5029C255.842 96.478 255.662 96.6176 255.638 96.8147L255.182 100.419C255.157 100.616 255.297 100.796 255.494 100.821C255.691 100.846 255.871 100.707 255.896 100.51Z"
                fill="white" />
            <path
                d="M254.111 100.284L254.566 96.6794C254.591 96.4823 254.452 96.3023 254.254 96.2774C254.057 96.2525 253.877 96.3921 253.852 96.5892L253.397 100.194C253.372 100.391 253.512 100.571 253.709 100.596C253.906 100.621 254.086 100.481 254.111 100.284Z"
                fill="white" />
            <path
                d="M252.328 100.058L252.783 96.4537C252.808 96.2566 252.668 96.0766 252.471 96.0517C252.274 96.0268 252.094 96.1664 252.069 96.3635L251.614 99.9682C251.589 100.165 251.728 100.345 251.926 100.37C252.123 100.395 252.303 100.255 252.328 100.058Z"
                fill="white" />
            <path
                d="M253.007 94.6694L253.463 91.0647C253.488 90.8675 253.348 90.6876 253.151 90.6627C252.954 90.6378 252.774 90.7773 252.749 90.9745L252.293 94.5792C252.268 94.7763 252.408 94.9563 252.605 94.9812C252.802 95.0061 252.982 94.8665 253.007 94.6694Z"
                fill="white" />
            <path
                d="M258.361 95.3459L258.816 91.7412C258.841 91.5441 258.702 91.3641 258.504 91.3392L254.9 90.8837C254.703 90.8588 254.523 90.9984 254.498 91.1955L254.042 94.8002C254.017 94.9973 254.157 95.1773 254.354 95.2022L257.959 95.6577C258.156 95.6826 258.336 95.543 258.361 95.3459ZM254.801 94.5335L255.166 91.6426L258.057 92.0079L257.692 94.8988L254.801 94.5335Z"
                fill="white" />
            <path
                d="M259.371 104.575L259.506 103.504L260.577 103.639C260.97 103.689 261.331 103.409 261.381 103.016L262.968 90.4529C263.018 90.0593 262.738 89.6987 262.345 89.6489L250.924 88.2057C249.94 88.0814 249.038 88.7808 248.914 89.7647L247.372 101.971C247.247 102.955 247.947 103.856 248.931 103.981L258.567 105.198C258.96 105.248 259.321 104.968 259.371 104.575ZM249.021 103.267C248.43 103.192 248.011 102.651 248.085 102.061L249.628 89.8549C249.702 89.2645 250.243 88.8449 250.834 88.9195L262.255 90.3627L260.667 102.926L249.782 101.55C249.29 101.488 248.839 101.838 248.777 102.33C248.752 102.527 248.891 102.707 249.088 102.732C249.286 102.757 249.465 102.617 249.49 102.42C249.503 102.321 249.593 102.251 249.691 102.264L258.792 103.414L258.657 104.485L249.021 103.267Z"
                fill="white" />
        </g>
        <g filter="url(#filter2_f_818_10964)">
            <rect x="789.408" y="22.9937" width="33.8804" height="33.8804" rx="7.6674"
                transform="rotate(-87.303 789.408 22.9937)" fill="#FF932F" />
            <path
                d="M816.525 -1.68323L816.149 6.2948M816.154 16.7895L814.286 11.1552C814.167 10.7948 814.107 10.6146 814.026 10.4448C813.954 10.294 813.87 10.1495 813.774 10.0128C813.665 9.85894 813.538 9.71854 813.282 9.43775L802.563 -2.34091C801.514 -3.49434 799.728 -3.57847 798.574 -2.52882C797.421 -1.47918 797.337 0.306761 798.386 1.46019L809.105 13.2388C809.361 13.5196 809.488 13.66 809.631 13.7823C809.758 13.8908 809.894 13.9885 810.038 14.0744C810.199 14.1711 810.373 14.2475 810.72 14.4003L816.154 16.7895ZM816.154 16.7895L810.915 14.4856C810.54 14.3208 810.352 14.2383 810.271 14.1083C810.199 13.9946 810.177 13.857 810.208 13.7266C810.244 13.5773 810.396 13.4395 810.699 13.1638L813.058 11.017C813.36 10.7414 813.512 10.6035 813.664 10.5818C813.797 10.5629 813.932 10.5982 814.038 10.6798C814.16 10.7732 814.224 10.9676 814.353 11.3564L816.154 16.7895Z"
                stroke="white" stroke-width="1.79705" stroke-linecap="round" stroke-linejoin="round" />
        </g>
        <g filter="url(#filter3_f_818_10964)">
            <rect x="945.994" y="109" width="33.8805" height="33.8805" rx="7.6674"
                transform="rotate(-163.505 945.994 109)" fill="#2FB4FF" />
            <g clip-path="url(#clip2_818_10964)">
                <path
                    d="M935.484 91.8624C935.173 92.2919 934.721 92.5976 934.206 92.7254C933.692 92.8532 933.148 92.7948 932.673 92.5605C932.197 92.3262 931.82 91.9312 931.608 91.4455C931.396 90.9597 931.362 90.4145 931.514 89.9064C931.939 88.4716 934.303 88.3915 934.303 88.3915M935.126 85.5115L935.116 85.5086M938.612 81.6501L937.766 79.3727C937.64 79.034 937.577 78.8647 937.465 78.7774C937.366 78.701 937.242 78.6643 937.118 78.6747C936.976 78.6865 936.831 78.7943 936.541 79.0099L934.591 80.4595C934.2 80.7506 934.004 80.8961 933.791 80.9883C933.506 81.1111 933.197 81.1661 932.887 81.1487C932.655 81.1357 932.422 81.0664 931.954 80.9279C930.616 80.5317 929.947 80.3336 929.354 80.3959C928.564 80.479 927.84 80.8725 927.34 81.4899C926.965 81.9529 926.767 82.622 926.37 83.9601L924.755 89.4165C924.278 91.0249 924.04 91.8291 924.171 92.5361C924.287 93.158 924.596 93.7274 925.055 94.1627C925.576 94.6576 926.381 94.8958 927.989 95.372L936.03 97.7531C937.638 98.2294 938.443 98.4675 939.15 98.3364C939.772 98.2211 940.341 97.9119 940.776 97.453C941.271 96.9314 941.509 96.1272 941.986 94.5189L943.601 89.0624C943.998 87.7243 944.196 87.0553 944.133 86.4628C944.05 85.6728 943.657 84.9482 943.039 84.4483C942.576 84.0735 941.907 83.8753 940.569 83.4791C940.102 83.3406 939.868 83.2714 939.666 83.1559C939.397 83.002 939.167 82.7875 938.996 82.5295C938.867 82.336 938.782 82.1073 938.612 81.6501Z"
                    stroke="white" stroke-width="1.79705" stroke-linecap="round" stroke-linejoin="round" />
            </g>
        </g>
        <g filter="url(#filter4_f_818_10964)">
            <path
                d="M222.77 168.982C212.719 206.494 141.091 219.894 62.7852 198.912C-15.5207 177.93 -70.8521 130.511 -60.8008 92.9994C-50.7496 55.4876 11.8946 87.71 90.2005 108.692C172.147 117 232.821 131.47 222.77 168.982Z"
                fill="url(#paint0_linear_818_10964)" />
        </g>
        <g filter="url(#filter5_f_818_10964)">
            <path
                d="M1285.77 112.275C1275.72 149.787 1204.09 163.187 1125.79 142.205C1047.48 121.223 992.148 73.8044 1002.2 36.2925C1012.25 -1.2193 1074.89 31.0031 1153.2 51.9851C1235.15 60.2931 1295.82 74.7633 1285.77 112.275Z"
                fill="url(#paint1_linear_818_10964)" />
        </g>
        <g filter="url(#filter6_d_818_10964)">
            <rect x="800" y="119.22" width="49" height="49" rx="9.8" transform="rotate(-33.7457 800 119.22)"
                fill="#3F51B5" shape-rendering="crispEdges" />
            <g clip-path="url(#clip3_818_10964)">
                <path
                    d="M820.997 126.146C819.726 124.244 819.091 123.293 818.976 122.32C818.874 121.463 819.047 120.597 819.468 119.845C819.947 118.989 820.898 118.354 822.8 117.084L831.854 111.035C833.122 110.188 833.756 109.764 834.405 109.688C834.975 109.62 835.553 109.735 836.055 110.016C836.625 110.335 837.048 110.969 837.895 112.237L848.178 127.629C849.025 128.897 849.449 129.531 849.525 130.18C849.593 130.751 849.478 131.328 849.197 131.83C848.878 132.4 848.244 132.824 846.976 133.67L837.922 139.719C836.02 140.99 835.07 141.625 834.096 141.74C833.24 141.841 832.373 141.669 831.621 141.247C830.766 140.768 830.13 139.818 828.86 137.916L820.997 126.146Z"
                    fill="#647AF3" />
                <path
                    d="M848.329 127.856L846.061 124.46L831.348 134.29C829.473 135.542 828.968 138.078 830.221 139.953M837.922 139.719L846.976 133.67C848.244 132.824 848.878 132.4 849.197 131.83C849.478 131.328 849.593 130.751 849.525 130.18C849.449 129.531 849.025 128.897 848.178 127.629L837.895 112.237C837.048 110.969 836.625 110.335 836.055 110.016C835.553 109.735 834.975 109.62 834.405 109.688C833.756 109.764 833.122 110.188 831.854 111.035L822.8 117.084C820.898 118.354 819.947 118.989 819.468 119.845C819.047 120.597 818.874 121.463 818.976 122.32C819.091 123.293 819.726 124.244 820.997 126.146L828.86 137.916C830.13 139.818 830.766 140.768 831.621 141.247C832.373 141.669 833.24 141.841 834.096 141.74C835.07 141.625 836.02 140.99 837.922 139.719Z"
                    stroke="white" stroke-width="2.04167" stroke-linecap="round" stroke-linejoin="round" />
                <path fillRule="evenodd" clipRule="evenodd"
                    d="M829.823 117.304C829.406 116.679 828.561 116.51 827.936 116.928C827.31 117.346 827.142 118.191 827.56 118.816L829.072 121.079L826.808 122.592C826.183 123.009 826.015 123.854 826.432 124.479C826.85 125.104 827.695 125.273 828.32 124.855L830.584 123.343L833.609 127.87C834.026 128.495 834.872 128.663 835.497 128.246C836.122 127.828 836.29 126.983 835.872 126.358L832.848 121.831L835.111 120.318C835.736 119.901 835.904 119.056 835.487 118.431C835.069 117.806 834.224 117.637 833.599 118.055L831.335 119.567L829.823 117.304Z"
                    fill="white" />
            </g>
        </g>
        <g filter="url(#filter7_d_818_10964)">
            <rect x="284.385" y="-17" width="49" height="49" rx="9.8" transform="rotate(31.2021 284.385 -17)"
                fill="#FF932F" shape-rendering="crispEdges" />
            <g clip-path="url(#clip4_818_10964)">
                <path
                    d="M296.521 32.4212L287.789 27.1327M275.998 20.7372L283.466 22.0761C283.943 22.1618 284.182 22.2046 284.422 22.2171C284.636 22.2282 284.85 22.2214 285.062 22.1968C285.301 22.1691 285.536 22.1113 286.007 21.9955L305.775 17.1408C307.711 16.6654 308.895 14.7108 308.42 12.775C307.944 10.8392 305.99 9.65535 304.054 10.1307L284.286 14.9854C283.815 15.1012 283.579 15.159 283.355 15.2452C283.155 15.3217 282.962 15.4147 282.779 15.5234C282.571 15.6457 282.38 15.7942 281.996 16.0914L275.998 20.7372ZM275.998 20.7372L281.782 16.2574C282.196 15.9368 282.403 15.7765 282.598 15.7643C282.77 15.7536 282.938 15.8122 283.065 15.927C283.211 16.0583 283.273 16.3125 283.398 16.821L284.371 20.7801C284.495 21.2885 284.558 21.5427 284.489 21.7266C284.43 21.8873 284.308 22.0172 284.151 22.087C283.972 22.1669 283.714 22.1207 283.199 22.0283L275.998 20.7372Z"
                    stroke="white" stroke-width="2.29688" stroke-linecap="round" stroke-linejoin="round" />
            </g>
        </g>
        <g filter="url(#filter8_d_818_10964)">
            <rect x="975.5" y="-17" width="49" height="49" rx="9.8" transform="rotate(30 975.5 -17)" fill="#0EA085"
                shape-rendering="crispEdges" />
            <g clip-path="url(#clip5_818_10964)">
                <path
                    d="M978.152 21.983L972.803 18.8945C972.511 18.7256 972.137 18.8259 971.968 19.1184C971.799 19.4109 971.899 19.7849 972.192 19.9538L977.541 23.0422C977.833 23.2111 978.207 23.1109 978.376 22.8184C978.545 22.5259 978.445 22.1519 978.152 21.983Z"
                    fill="white" />
                <path
                    d="M986.149 26.6003L980.799 23.5118C980.507 23.343 980.133 23.4432 979.964 23.7357C979.795 24.0282 979.895 24.4022 980.188 24.5711L985.537 27.6596C985.829 27.8284 986.203 27.7282 986.372 27.4357C986.541 27.1432 986.441 26.7691 986.149 26.6003Z"
                    fill="white" />
                <path
                    d="M993.794 13.3586L980.448 5.65283C980.155 5.48395 979.781 5.58416 979.612 5.87668C979.443 6.1692 979.544 6.54322 979.836 6.71211L993.183 14.4179C993.475 14.5868 993.849 14.4866 994.018 14.1941C994.187 13.9016 994.087 13.5275 993.794 13.3586Z"
                    fill="white" />
                <path
                    d="M992.266 16.0074L986.916 12.9189C986.624 12.7501 986.25 12.8503 986.081 13.1428C985.912 13.4353 986.012 13.8093 986.305 13.9782L991.654 17.0667C991.947 17.2355 992.321 17.1353 992.49 16.8428C992.658 16.5503 992.558 16.1762 992.266 16.0074Z"
                    fill="white" />
                <path
                    d="M990.736 18.6555L985.387 15.567C985.095 15.3981 984.721 15.4983 984.552 15.7909C984.383 16.0834 984.483 16.4574 984.775 16.6263L990.125 19.7147C990.417 19.8836 990.791 19.7834 990.96 19.4909C991.129 19.1984 991.029 18.8243 990.736 18.6555Z"
                    fill="white" />
                <path
                    d="M989.207 21.3041L983.858 18.2157C983.565 18.0468 983.191 18.147 983.022 18.4395C982.853 18.7321 982.954 19.1061 983.246 19.275L988.596 22.3634C988.888 22.5323 989.262 22.4321 989.431 22.1396C989.6 21.847 989.5 21.473 989.207 21.3041Z"
                    fill="white" />
                <path
                    d="M987.678 23.9526L982.328 20.8641C982.036 20.6953 981.662 20.7955 981.493 21.088C981.324 21.3805 981.424 21.7545 981.717 21.9234L987.066 25.0119C987.359 25.1807 987.733 25.0805 987.902 24.788C988.071 24.4955 987.97 24.1214 987.678 23.9526Z"
                    fill="white" />
                <path
                    d="M979.68 19.3353L974.33 16.2468C974.038 16.0779 973.664 16.1782 973.495 16.4707C973.326 16.7632 973.426 17.1372 973.719 17.3061L979.068 20.3945C979.361 20.5634 979.735 20.4632 979.904 20.1707C980.072 19.8782 979.972 19.5042 979.68 19.3353Z"
                    fill="white" />
                <path
                    d="M984.268 11.39L978.918 8.30151C978.626 8.13263 978.252 8.23285 978.083 8.52536L974.994 13.8747C974.826 14.1672 974.926 14.5412 975.218 14.7101L980.568 17.7986C980.86 17.9675 981.234 17.8672 981.403 17.5747L984.491 12.2254C984.66 11.9329 984.56 11.5588 984.268 11.39ZM980.65 16.4335L976.36 13.9566L978.836 9.66657L983.126 12.1434L980.65 16.4335Z"
                    fill="white" />
                <path
                    d="M999.396 15.8873L997.807 14.97L998.724 13.3811C999.062 12.797 998.861 12.0474 998.277 11.7102L979.633 0.946533C979.049 0.609312 978.3 0.810152 977.963 1.39424L968.177 18.3426C967.334 19.8028 967.837 21.6767 969.297 22.5198L987.41 32.9776C988.871 33.8207 990.744 33.3186 991.587 31.8584L999.844 17.5582C1000.18 16.9741 999.98 16.2245 999.396 15.8873ZM990.528 31.2468C990.022 32.1229 988.898 32.4242 988.022 31.9184L969.908 21.4605C969.032 20.9546 968.731 19.8303 969.237 18.9542L979.022 2.00581L997.665 12.7695L988.339 28.9234C987.917 29.6535 988.168 30.5905 988.898 31.012C989.191 31.1808 989.565 31.0807 989.734 30.7881C989.903 30.4956 989.802 30.1216 989.51 29.9527C989.364 29.8684 989.314 29.681 989.398 29.535L997.195 16.0292L998.784 16.9466L990.528 31.2468Z"
                    fill="white" />
            </g>
        </g>
        <g filter="url(#filter9_d_818_10964)">
            <rect x="67" y="122.648" width="49" height="49" rx="9.8" transform="rotate(-45 67 122.648)" fill="#2FB4FF"
                shape-rendering="crispEdges" />
            <g clip-path="url(#clip6_818_10964)">
                <path
                    d="M96.687 121.297C96.394 120.686 96.3267 119.991 96.497 119.335C96.6673 118.68 97.0642 118.105 97.6174 117.714C98.1706 117.323 98.8444 117.14 99.5194 117.198C100.194 117.256 100.827 117.551 101.306 118.031C102.658 119.383 101.306 122.088 101.306 122.088M104.039 124.769L104.048 124.76M106.249 131.04L109.323 131.479C109.78 131.544 110.009 131.577 110.176 131.503C110.322 131.439 110.438 131.323 110.503 131.176C110.576 131.01 110.543 130.781 110.478 130.324L110.039 127.25C109.951 126.633 109.907 126.324 109.933 126.028C109.969 125.634 110.096 125.253 110.304 124.916C110.46 124.663 110.681 124.443 111.122 124.002C112.383 122.741 113.014 122.11 113.305 121.407C113.694 120.469 113.694 119.415 113.305 118.477C113.014 117.773 112.383 117.142 111.122 115.881L105.979 110.738C104.463 109.222 103.705 108.464 102.831 108.18C102.062 107.93 101.234 107.93 100.465 108.18C99.5906 108.464 98.8326 109.222 97.3166 110.738L89.7373 118.317C88.2213 119.833 87.4633 120.591 87.1793 121.465C86.9295 122.234 86.9295 123.063 87.1793 123.831C87.4633 124.705 88.2213 125.463 89.7373 126.979L94.8804 132.123C96.1416 133.384 96.7723 134.014 97.4758 134.306C98.4138 134.694 99.4677 134.694 100.406 134.306C101.109 134.014 101.74 133.384 103.001 132.123C103.442 131.682 103.662 131.461 103.915 131.305C104.252 131.097 104.633 130.97 105.028 130.934C105.324 130.908 105.632 130.952 106.249 131.04Z"
                    stroke="white" stroke-width="2.29688" stroke-linecap="round" stroke-linejoin="round" />
            </g>
        </g>
    </g>
    <defs>
        <filter id="filter0_f_818_10964" x="130" y="8" width="63.9375" height="63.9371" filterUnits="userSpaceOnUse"
            color-interpolation-filters="sRGB">
            <feFlood flood-opacity="0" result="BackgroundImageFix" />
            <feBlend mode="normal" in="SourceGraphic" in2="BackgroundImageFix" result="shape" />
            <feGaussianBlur stdDeviation="6" result="effect1_foregroundBlur_818_10964" />
        </filter>
        <filter id="filter1_f_818_10964" x="227.549" y="68.5066" width="56.209" height="56.2089"
            filterUnits="userSpaceOnUse" color-interpolation-filters="sRGB">
            <feFlood flood-opacity="0" result="BackgroundImageFix" />
            <feBlend mode="normal" in="SourceGraphic" in2="BackgroundImageFix" result="shape" />
            <feGaussianBlur stdDeviation="6" result="effect1_foregroundBlur_818_10964" />
        </filter>
        <filter id="filter2_f_818_10964" x="785.408" y="-14.8492" width="43.4375" height="43.4371"
            filterUnits="userSpaceOnUse" color-interpolation-filters="sRGB">
            <feFlood flood-opacity="0" result="BackgroundImageFix" />
            <feBlend mode="normal" in="SourceGraphic" in2="BackgroundImageFix" result="shape" />
            <feGaussianBlur stdDeviation="2" result="effect1_foregroundBlur_818_10964" />
        </filter>
        <filter id="filter3_f_818_10964" x="909.508" y="62.8942" width="50.1055" height="50.1058"
            filterUnits="userSpaceOnUse" color-interpolation-filters="sRGB">
            <feFlood flood-opacity="0" result="BackgroundImageFix" />
            <feBlend mode="normal" in="SourceGraphic" in2="BackgroundImageFix" result="shape" />
            <feGaussianBlur stdDeviation="2" result="effect1_foregroundBlur_818_10964" />
        </filter>
        <filter id="filter4_f_818_10964" x="-225.98" y="-88.2667" width="613.84" height="461.096"
            filterUnits="userSpaceOnUse" color-interpolation-filters="sRGB">
            <feFlood flood-opacity="0" result="BackgroundImageFix" />
            <feBlend mode="normal" in="SourceGraphic" in2="BackgroundImageFix" result="shape" />
            <feGaussianBlur stdDeviation="82" result="effect1_foregroundBlur_818_10964" />
        </filter>
        <filter id="filter5_f_818_10964" x="837.02" y="-144.974" width="613.84" height="461.096"
            filterUnits="userSpaceOnUse" color-interpolation-filters="sRGB">
            <feFlood flood-opacity="0" result="BackgroundImageFix" />
            <feBlend mode="normal" in="SourceGraphic" in2="BackgroundImageFix" result="shape" />
            <feGaussianBlur stdDeviation="82" result="effect1_foregroundBlur_818_10964" />
        </filter>
        <filter id="filter6_d_818_10964" x="791.833" y="86.5554" width="84.2982" height="84.2972"
            filterUnits="userSpaceOnUse" color-interpolation-filters="sRGB">
            <feFlood flood-opacity="0" result="BackgroundImageFix" />
            <feColorMatrix in="SourceAlpha" type="matrix" values="0 0 0 0 0 0 0 0 0 0 0 0 0 0 0 0 0 0 127 0"
                result="hardAlpha" />
            <feOffset dy="2.72222" />
            <feGaussianBlur stdDeviation="4.08333" />
            <feComposite in2="hardAlpha" operator="out" />
            <feColorMatrix type="matrix" values="0 0 0 0 0.420426 0 0 0 0 0.493658 0 0 0 0 0.900505 0 0 0 0.32 0" />
            <feBlend mode="normal" in2="BackgroundImageFix" result="effect1_dropShadow_818_10964" />
            <feBlend mode="normal" in="SourceGraphic" in2="effect1_dropShadow_818_10964" result="shape" />
        </filter>
        <filter id="filter7_d_818_10964" x="250.833" y="-22.4444" width="83.6302" height="83.6301"
            filterUnits="userSpaceOnUse" color-interpolation-filters="sRGB">
            <feFlood flood-opacity="0" result="BackgroundImageFix" />
            <feColorMatrix in="SourceAlpha" type="matrix" values="0 0 0 0 0 0 0 0 0 0 0 0 0 0 0 0 0 0 127 0"
                result="hardAlpha" />
            <feOffset dy="2.72222" />
            <feGaussianBlur stdDeviation="4.08333" />
            <feComposite in2="hardAlpha" operator="out" />
            <feColorMatrix type="matrix" values="0 0 0 0 1 0 0 0 0 0.576471 0 0 0 0 0.184314 0 0 0 0.32 0" />
            <feBlend mode="normal" in2="BackgroundImageFix" result="effect1_dropShadow_818_10964" />
            <feBlend mode="normal" in="SourceGraphic" in2="effect1_dropShadow_818_10964" result="shape" />
        </filter>
        <filter id="filter8_d_818_10964" x="942.833" y="-22.4444" width="83.2689" height="83.2686"
            filterUnits="userSpaceOnUse" color-interpolation-filters="sRGB">
            <feFlood flood-opacity="0" result="BackgroundImageFix" />
            <feColorMatrix in="SourceAlpha" type="matrix" values="0 0 0 0 0 0 0 0 0 0 0 0 0 0 0 0 0 0 127 0"
                result="hardAlpha" />
            <feOffset dy="2.72222" />
            <feGaussianBlur stdDeviation="4.08333" />
            <feComposite in2="hardAlpha" operator="out" />
            <feColorMatrix type="matrix" values="0 0 0 0 0.054902 0 0 0 0 0.627451 0 0 0 0 0.521569 0 0 0 0.32 0" />
            <feBlend mode="normal" in2="BackgroundImageFix" result="effect1_dropShadow_818_10964" />
            <feBlend mode="normal" in="SourceGraphic" in2="effect1_dropShadow_818_10964" result="shape" />
        </filter>
        <filter id="filter9_d_818_10964" x="58.8333" y="82.5558" width="85.6302" height="85.6297"
            filterUnits="userSpaceOnUse" color-interpolation-filters="sRGB">
            <feFlood flood-opacity="0" result="BackgroundImageFix" />
            <feColorMatrix in="SourceAlpha" type="matrix" values="0 0 0 0 0 0 0 0 0 0 0 0 0 0 0 0 0 0 127 0"
                result="hardAlpha" />
            <feOffset dy="2.72222" />
            <feGaussianBlur stdDeviation="4.08333" />
            <feComposite in2="hardAlpha" operator="out" />
            <feColorMatrix type="matrix" values="0 0 0 0 0.184314 0 0 0 0 0.705882 0 0 0 0 1 0 0 0 0.32 0" />
            <feBlend mode="normal" in2="BackgroundImageFix" result="effect1_dropShadow_818_10964" />
            <feBlend mode="normal" in="SourceGraphic" in2="effect1_dropShadow_818_10964" result="shape" />
        </filter>
        <linearGradient id="paint0_linear_818_10964" x1="-61.0852" y1="125.15" x2="213.169" y2="198.636"
            gradientUnits="userSpaceOnUse">
            <stop stop-color="#7242F9" />
            <stop offset="1" stop-color="#C553FF" />
        </linearGradient>
        <linearGradient id="paint1_linear_818_10964" x1="1001.91" y1="68.4431" x2="1276.17" y2="141.929"
            gradientUnits="userSpaceOnUse">
            <stop stop-color="#7242F9" />
            <stop offset="1" stop-color="#C553FF" />
        </linearGradient>
        <clipPath id="clip0_818_10964">
            <rect width="1142" height="133" rx="24" fill="white" />
        </clipPath>
        <clipPath id="clip1_818_10964">
            <rect width="19.2152" height="19.2152" fill="white" transform="translate(159.25 26.6565) rotate(33.4564)" />
        </clipPath>
        <clipPath id="clip2_818_10964">
            <rect width="23.9606" height="23.9606" fill="white"
                transform="translate(942.646 102.836) rotate(-163.505)" />
        </clipPath>
        <clipPath id="clip3_818_10964">
            <rect width="32.6667" height="32.6667" fill="white"
                transform="translate(811.328 121.474) rotate(-33.7457)" />
        </clipPath>
        <clipPath id="clip4_818_10964">
            <rect width="30.625" height="30.625" fill="white" transform="translate(287.484 -4.38184) rotate(31.2021)" />
        </clipPath>
        <clipPath id="clip5_818_10964">
            <rect width="32.6667" height="32.6667" fill="white" transform="translate(978.488 -5.84424) rotate(30)" />
        </clipPath>
        <clipPath id="clip6_818_10964">
            <rect width="30.625" height="30.625" fill="white" transform="translate(79.9922 122.648) rotate(-45)" />
        </clipPath>
    </defs>
</svg>